<svg xmlns="http://www.w3.org/2000/svg" xmlns:xlink="http://www.w3.org/1999/xlink" contentStyleType="text/css" data-diagram-type="CLASS" height="275px" preserveAspectRatio="none" style="width:325px;height:275px;background:#FFFFFF;" version="1.1" viewBox="0 0 325 275" width="325px" zoomAndPan="magnify"><?plantuml 1.2026.3beta6?><defs/><g><!--class User--><g class="entity" data-qualified-name="User" data-source-line="1" id="ent0002"><rect fill="#F1F1F1" height="113.1875" rx="2.5" ry="2.5" style="stroke:#181818;stroke-width:0.5;" width="67.8359" x="7" y="7"/><ellipse cx="23.7666" cy="23" fill="#ADD1B2" rx="11" ry="11" style="stroke:#181818;stroke-width:1;"/><path d="M26.7354,28.6406 Q26.1572,28.9375 25.5166,29.0781 Q24.876,29.2344 24.1729,29.2344 Q21.6729,29.2344 20.3447,27.5938 Q19.0322,25.9375 19.0322,22.8125 Q19.0322,19.6875 20.3447,18.0313 Q21.6729,16.375 24.1729,16.375 Q24.876,16.375 25.5166,16.5313 Q26.1729,16.6875 26.7354,16.9844 L26.7354,19.7031 Q26.1104,19.125 25.5166,18.8594 Q24.9229,18.5781 24.2979,18.5781 Q22.9541,18.5781 22.2666,19.6563 Q21.5791,20.7188 21.5791,22.8125 Q21.5791,24.9063 22.2666,25.9844 Q22.9541,27.0469 24.2979,27.0469 Q24.9229,27.0469 25.5166,26.7813 Q26.1104,26.5 26.7354,25.9219 L26.7354,28.6406 Z " fill="#000000"/><text fill="#000000" font-family="sans-serif" font-size="14" lengthAdjust="spacing" textLength="31.9102" x="38.1592" y="27.8467">User</text><line style="stroke:#181818;stroke-width:0.5;" x1="8" x2="73.8359" y1="39" y2="39"/><text fill="#000000" font-family="sans-serif" font-size="14" lengthAdjust="spacing" textLength="13.0156" x="13" y="55.9951">Id</text><text fill="#000000" font-family="sans-serif" font-size="14" lengthAdjust="spacing" textLength="41.3027" x="13" y="72.292">Name</text><text fill="#000000" font-family="sans-serif" font-size="14" lengthAdjust="spacing" textLength="38.8418" x="13" y="88.5889">Email</text><text fill="#000000" font-family="sans-serif" font-size="14" lengthAdjust="spacing" textLength="55.8359" x="13" y="104.8857">Balance</text><line style="stroke:#181818;stroke-width:0.5;" x1="8" x2="73.8359" y1="112.1875" y2="112.1875"/></g><!--class Service--><g class="entity" data-qualified-name="Service" data-source-line="8" id="ent0003"><rect fill="#F1F1F1" height="113.1875" rx="2.5" ry="2.5" style="stroke:#181818;stroke-width:0.5;" width="86.6553" x="109.59" y="7"/><ellipse cx="125.9013" cy="23" fill="#ADD1B2" rx="11" ry="11" style="stroke:#181818;stroke-width:1;"/><path d="M128.8701,28.6406 Q128.292,28.9375 127.6513,29.0781 Q127.0107,29.2344 126.3076,29.2344 Q123.8076,29.2344 122.4795,27.5938 Q121.167,25.9375 121.167,22.8125 Q121.167,19.6875 122.4795,18.0313 Q123.8076,16.375 126.3076,16.375 Q127.0107,16.375 127.6513,16.5313 Q128.3076,16.6875 128.8701,16.9844 L128.8701,19.7031 Q128.2451,19.125 127.6513,18.8594 Q127.0576,18.5781 126.4326,18.5781 Q125.0888,18.5781 124.4013,19.6563 Q123.7138,20.7188 123.7138,22.8125 Q123.7138,24.9063 124.4013,25.9844 Q125.0888,27.0469 126.4326,27.0469 Q127.0576,27.0469 127.6513,26.7813 Q128.2451,26.5 128.8701,25.9219 L128.8701,28.6406 Z " fill="#000000"/><text fill="#000000" font-family="sans-serif" font-size="14" lengthAdjust="spacing" textLength="51.7412" x="140.1927" y="27.8467">Service</text><line style="stroke:#181818;stroke-width:0.5;" x1="110.59" x2="195.2453" y1="39" y2="39"/><text fill="#000000" font-family="sans-serif" font-size="14" lengthAdjust="spacing" textLength="13.0156" x="115.59" y="55.9951">Id</text><text fill="#000000" font-family="sans-serif" font-size="14" lengthAdjust="spacing" textLength="41.3027" x="115.59" y="72.292">Name</text><text fill="#000000" font-family="sans-serif" font-size="14" lengthAdjust="spacing" textLength="34.3984" x="115.59" y="88.5889">Price</text><text fill="#000000" font-family="sans-serif" font-size="14" lengthAdjust="spacing" textLength="74.6553" x="115.59" y="104.8857">UpdatedAt</text><line style="stroke:#181818;stroke-width:0.5;" x1="110.59" x2="195.2453" y1="112.1875" y2="112.1875"/></g><!--class Master--><g class="entity" data-qualified-name="Master" data-source-line="15" id="ent0004"><rect fill="#F1F1F1" height="80.5938" rx="2.5" ry="2.5" style="stroke:#181818;stroke-width:0.5;" width="79.8105" x="231.01" y="23.3"/><ellipse cx="246.01" cy="39.3" fill="#ADD1B2" rx="11" ry="11" style="stroke:#181818;stroke-width:1;"/><path d="M248.9788,44.9406 Q248.4006,45.2375 247.76,45.3781 Q247.1194,45.5344 246.4163,45.5344 Q243.9163,45.5344 242.5881,43.8938 Q241.2756,42.2375 241.2756,39.1125 Q241.2756,35.9875 242.5881,34.3313 Q243.9163,32.675 246.4163,32.675 Q247.1194,32.675 247.76,32.8313 Q248.4163,32.9875 248.9788,33.2844 L248.9788,36.0031 Q248.3538,35.425 247.76,35.1594 Q247.1663,34.8781 246.5413,34.8781 Q245.1975,34.8781 244.51,35.9563 Q243.8225,37.0188 243.8225,39.1125 Q243.8225,41.2063 244.51,42.2844 Q245.1975,43.3469 246.5413,43.3469 Q247.1663,43.3469 247.76,43.0813 Q248.3538,42.8 248.9788,42.2219 L248.9788,44.9406 Z " fill="#000000"/><text fill="#000000" font-family="sans-serif" font-size="14" lengthAdjust="spacing" textLength="47.8105" x="260.01" y="44.1467">Master</text><line style="stroke:#181818;stroke-width:0.5;" x1="232.01" x2="309.8205" y1="55.3" y2="55.3"/><text fill="#000000" font-family="sans-serif" font-size="14" lengthAdjust="spacing" textLength="13.0156" x="237.01" y="72.2951">Id</text><text fill="#000000" font-family="sans-serif" font-size="14" lengthAdjust="spacing" textLength="41.3027" x="237.01" y="88.592">Name</text><line style="stroke:#181818;stroke-width:0.5;" x1="232.01" x2="309.8205" y1="95.8938" y2="95.8938"/></g><!--class Appointment--><g class="entity" data-qualified-name="Appointment" data-source-line="20" id="ent0005"><rect fill="#F1F1F1" height="80.5938" rx="2.5" ry="2.5" style="stroke:#181818;stroke-width:0.5;" width="122.7813" x="91.53" y="180.19"/><ellipse cx="106.53" cy="196.19" fill="#ADD1B2" rx="11" ry="11" style="stroke:#181818;stroke-width:1;"/><path d="M109.4988,201.8306 Q108.9206,202.1275 108.28,202.2681 Q107.6394,202.4244 106.9363,202.4244 Q104.4363,202.4244 103.1081,200.7838 Q101.7956,199.1275 101.7956,196.0025 Q101.7956,192.8775 103.1081,191.2213 Q104.4363,189.565 106.9363,189.565 Q107.6394,189.565 108.28,189.7213 Q108.9363,189.8775 109.4988,190.1744 L109.4988,192.8931 Q108.8738,192.315 108.28,192.0494 Q107.6863,191.7681 107.0613,191.7681 Q105.7175,191.7681 105.03,192.8463 Q104.3425,193.9088 104.3425,196.0025 Q104.3425,198.0963 105.03,199.1744 Q105.7175,200.2369 107.0613,200.2369 Q107.6863,200.2369 108.28,199.9713 Q108.8738,199.69 109.4988,199.1119 L109.4988,201.8306 Z " fill="#000000"/><text fill="#000000" font-family="sans-serif" font-size="14" lengthAdjust="spacing" textLength="90.7813" x="120.53" y="201.0367">Appointment</text><line style="stroke:#181818;stroke-width:0.5;" x1="92.53" x2="213.3113" y1="212.19" y2="212.19"/><text fill="#000000" font-family="sans-serif" font-size="14" lengthAdjust="spacing" textLength="13.0156" x="97.53" y="229.1851">Id</text><text fill="#000000" font-family="sans-serif" font-size="14" lengthAdjust="spacing" textLength="33.4619" x="97.53" y="245.482">Date</text><line style="stroke:#181818;stroke-width:0.5;" x1="92.53" x2="213.3113" y1="252.7838" y2="252.7838"/></g><!--link User to Appointment--><g class="link" data-entity-1="ent0002" data-entity-2="ent0005" data-link-type="association" data-source-line="25" id="lnk6"><path codeLine="25" d="M75.13,111.91 C90.83,133.61 109.23,159.06 124.19,179.76" fill="none" id="User-Appointment" style="stroke:#181818;stroke-width:1;"/><text fill="#000000" font-family="sans-serif" font-size="13" lengthAdjust="spacing" textLength="8.271" x="83.0392" y="117.4089">1</text><text fill="#000000" font-family="sans-serif" font-size="13" lengthAdjust="spacing" textLength="6.5" x="113.1728" y="169.1513">*</text></g><!--link Service to Appointment--><g class="link" data-entity-1="ent0003" data-entity-2="ent0005" data-link-type="association" data-source-line="26" id="lnk7"><path codeLine="26" d="M152.92,120.51 C152.92,140.27 152.92,162.06 152.92,180.15" fill="none" id="Service-Appointment" style="stroke:#181818;stroke-width:1;"/><text fill="#000000" font-family="sans-serif" font-size="13" lengthAdjust="spacing" textLength="8.271" x="144.4493" y="140.4357">1</text><text fill="#000000" font-family="sans-serif" font-size="13" lengthAdjust="spacing" textLength="6.5" x="146.4472" y="169.0063">*</text></g><!--link Master to Appointment--><g class="link" data-entity-1="ent0004" data-entity-2="ent0005" data-link-type="association" data-source-line="27" id="lnk8"><path codeLine="27" d="M240.84,104.08 C223.15,127.29 200.86,156.55 183.15,179.8" fill="none" id="Master-Appointment" style="stroke:#181818;stroke-width:1;"/><text fill="#000000" font-family="sans-serif" font-size="13" lengthAdjust="spacing" textLength="8.271" x="227.2187" y="124.1051">1</text><text fill="#000000" font-family="sans-serif" font-size="13" lengthAdjust="spacing" textLength="6.5" x="181.5295" y="169.1977">*</text></g><?plantuml-src Iyv9B2vM22rEBLAevb9Gy4m14dw9kQb0oZKtCJC7I3ibvYJc9QTorN9n9ODL1wSMbMKcfs9e22W2YWBfq8AKn9BK5CSIX1RVnE8I32lWieu51VcPUIMvgNab22KkG3D0Ii1kKp9KKj3LLL3IKa9Mp0Lp2GvfgAtOPG40?></g></svg>