<svg xmlns="http://www.w3.org/2000/svg" xmlns:xlink="http://www.w3.org/1999/xlink" contentStyleType="text/css" data-diagram-type="ACTIVITY" height="550px" preserveAspectRatio="none" style="width:319px;height:550px;background:#FFFFFF;" version="1.1" viewBox="0 0 319 550" width="319px" zoomAndPan="magnify"><?plantuml 1.2026.3beta6?><defs/><g><g class="title" data-source-line="1"><text fill="#000000" font-family="sans-serif" font-size="14" font-weight="700" lengthAdjust="spacing" textLength="277.5117" x="20" y="32.9951">Activity_Moderator_ManageService</text></g><ellipse cx="150.8549" cy="62.2969" fill="#222222" rx="10" ry="10" style="stroke:#222222;stroke-width:1;"/><rect fill="#F1F1F1" height="33.9688" rx="12.5" ry="12.5" style="stroke:#181818;stroke-width:0.5;" width="117.1953" x="92.2572" y="92.2969"/><text fill="#000000" font-family="sans-serif" font-size="12" lengthAdjust="spacing" textLength="97.1953" x="102.2572" y="113.4355">&#1042;&#1093;&#1086;&#1076; &#1074; &#1089;&#1080;&#1089;&#1090;&#1077;&#1084;&#1091;</text><rect fill="#F1F1F1" height="33.9688" rx="12.5" ry="12.5" style="stroke:#181818;stroke-width:0.5;" width="226.7129" x="37.4984" y="146.2656"/><text fill="#000000" font-family="sans-serif" font-size="12" lengthAdjust="spacing" textLength="206.7129" x="47.4984" y="167.4043">&#1055;&#1077;&#1088;&#1077;&#1093;&#1086;&#1076; &#1074; &#1091;&#1087;&#1088;&#1072;&#1074;&#1083;&#1077;&#1085;&#1080;&#1077; &#1091;&#1089;&#1083;&#1091;&#1075;&#1072;&#1084;&#1080;</text><rect fill="#F1F1F1" height="33.9688" rx="12.5" ry="12.5" style="stroke:#181818;stroke-width:0.5;" width="106.4551" x="97.6273" y="200.2344"/><text fill="#000000" font-family="sans-serif" font-size="12" lengthAdjust="spacing" textLength="86.4551" x="107.6273" y="221.373">&#1042;&#1099;&#1073;&#1086;&#1088; &#1091;&#1089;&#1083;&#1091;&#1075;&#1080;</text><rect fill="#F1F1F1" height="33.9688" rx="12.5" ry="12.5" style="stroke:#181818;stroke-width:0.5;" width="141.7813" x="79.9642" y="302.6055"/><text fill="#000000" font-family="sans-serif" font-size="12" lengthAdjust="spacing" textLength="121.7813" x="89.9642" y="323.7441">&#1048;&#1079;&#1084;&#1077;&#1085;&#1077;&#1085;&#1080;&#1077; &#1076;&#1072;&#1085;&#1085;&#1099;&#1093;</text><polygon fill="#F1F1F1" points="62.6964,254.2031,239.0133,254.2031,251.0133,266.2031,239.0133,278.2031,62.6964,278.2031,50.6964,266.2031,62.6964,254.2031" style="stroke:#181818;stroke-width:0.5;"/><text fill="#000000" font-family="sans-serif" font-size="11" lengthAdjust="spacing" textLength="15.3345" x="154.8549" y="288.4136">&#1044;&#1072;</text><text fill="#000000" font-family="sans-serif" font-size="11" lengthAdjust="spacing" textLength="176.3169" x="62.6964" y="270.0112">&#1056;&#1077;&#1076;&#1072;&#1082;&#1090;&#1080;&#1088;&#1086;&#1074;&#1072;&#1090;&#1100; &#1080;&#1083;&#1080; &#1076;&#1086;&#1073;&#1072;&#1074;&#1080;&#1090;&#1100;?</text><text fill="#000000" font-family="sans-serif" font-size="11" lengthAdjust="spacing" textLength="21.4468" x="251.0133" y="263.6089">&#1053;&#1077;&#1090;</text><polygon fill="#F1F1F1" points="150.8549,356.5742,162.8549,368.5742,150.8549,380.5742,138.8549,368.5742,150.8549,356.5742" style="stroke:#181818;stroke-width:0.5;"/><rect fill="#F1F1F1" height="33.9688" rx="12.5" ry="12.5" style="stroke:#181818;stroke-width:0.5;" width="96.0488" x="102.8304" y="400.5742"/><text fill="#000000" font-family="sans-serif" font-size="12" lengthAdjust="spacing" textLength="76.0488" x="112.8304" y="421.7129">&#1057;&#1086;&#1093;&#1088;&#1072;&#1085;&#1077;&#1085;&#1080;&#1077;</text><rect fill="#F1F1F1" height="33.9688" rx="12.5" ry="12.5" style="stroke:#181818;stroke-width:0.5;" width="205.6367" x="48.0365" y="454.543"/><text fill="#000000" font-family="sans-serif" font-size="12" lengthAdjust="spacing" textLength="185.6367" x="58.0365" y="475.6816">&#1054;&#1073;&#1085;&#1086;&#1074;&#1083;&#1077;&#1085;&#1080;&#1077; &#1076;&#1072;&#1090;&#1099; &#1080;&#1079;&#1084;&#1077;&#1085;&#1077;&#1085;&#1080;&#1103;</text><ellipse cx="150.8549" cy="519.5117" fill="none" rx="11" ry="11" style="stroke:#222222;stroke-width:1;"/><ellipse cx="150.8549" cy="519.5117" fill="#222222" rx="6" ry="6" style="stroke:#222222;stroke-width:1;"/><line style="stroke:#181818;stroke-width:1;" x1="150.8549" x2="150.8549" y1="72.2969" y2="92.2969"/><polygon fill="#181818" points="146.8549,82.2969,150.8549,92.2969,154.8549,82.2969,150.8549,86.2969" style="stroke:#181818;stroke-width:1;"/><line style="stroke:#181818;stroke-width:1;" x1="150.8549" x2="150.8549" y1="126.2656" y2="146.2656"/><polygon fill="#181818" points="146.8549,136.2656,150.8549,146.2656,154.8549,136.2656,150.8549,140.2656" style="stroke:#181818;stroke-width:1;"/><line style="stroke:#181818;stroke-width:1;" x1="150.8549" x2="150.8549" y1="180.2344" y2="200.2344"/><polygon fill="#181818" points="146.8549,190.2344,150.8549,200.2344,154.8549,190.2344,150.8549,194.2344" style="stroke:#181818;stroke-width:1;"/><line style="stroke:#181818;stroke-width:1;" x1="150.8549" x2="150.8549" y1="278.2031" y2="302.6055"/><polygon fill="#181818" points="146.8549,292.6055,150.8549,302.6055,154.8549,292.6055,150.8549,296.6055" style="stroke:#181818;stroke-width:1;"/><line style="stroke:#181818;stroke-width:1;" x1="251.0133" x2="263.0133" y1="266.2031" y2="266.2031"/><polygon fill="#181818" points="259.0133,309.5898,263.0133,319.5898,267.0133,309.5898,263.0133,313.5898" style="stroke:#181818;stroke-width:1;"/><line style="stroke:#181818;stroke-width:1;" x1="263.0133" x2="263.0133" y1="266.2031" y2="368.5742"/><line style="stroke:#181818;stroke-width:1;" x1="263.0133" x2="162.8549" y1="368.5742" y2="368.5742"/><polygon fill="#181818" points="172.8549,364.5742,162.8549,368.5742,172.8549,372.5742,168.8549,368.5742" style="stroke:#181818;stroke-width:1;"/><line style="stroke:#181818;stroke-width:1;" x1="150.8549" x2="150.8549" y1="336.5742" y2="356.5742"/><polygon fill="#181818" points="146.8549,346.5742,150.8549,356.5742,154.8549,346.5742,150.8549,350.5742" style="stroke:#181818;stroke-width:1;"/><line style="stroke:#181818;stroke-width:1;" x1="150.8549" x2="150.8549" y1="234.2031" y2="254.2031"/><polygon fill="#181818" points="146.8549,244.2031,150.8549,254.2031,154.8549,244.2031,150.8549,248.2031" style="stroke:#181818;stroke-width:1;"/><line style="stroke:#181818;stroke-width:1;" x1="150.8549" x2="150.8549" y1="380.5742" y2="400.5742"/><polygon fill="#181818" points="146.8549,390.5742,150.8549,400.5742,154.8549,390.5742,150.8549,394.5742" style="stroke:#181818;stroke-width:1;"/><line style="stroke:#181818;stroke-width:1;" x1="150.8549" x2="150.8549" y1="434.543" y2="454.543"/><polygon fill="#181818" points="146.8549,444.543,150.8549,454.543,154.8549,444.543,150.8549,448.543" style="stroke:#181818;stroke-width:1;"/><line style="stroke:#181818;stroke-width:1;" x1="150.8549" x2="150.8549" y1="488.5117" y2="508.5117"/><polygon fill="#181818" points="146.8549,498.5117,150.8549,508.5117,154.8549,498.5117,150.8549,502.5117" style="stroke:#181818;stroke-width:1;"/><?plantuml-src LP1DIiD068RtSufPcYiq2_40NNc04jgf3fH4qg7What9Ae8WBjpuTuDO6nnC4w_mVZVodO0_NMJplN_Fn5ctCFfiwkpAkkl9E9kPF75PFXadQN9Xpas-ibEZrD8bkLCZt4c97dkDdPODl6oaG8E3R6EApsXapU_FiiKNBpLsQ6dhuD7mo6HBwPt20JuUQYkyePVrVvMAdUiJl32wf_UJMvvrFUjgAUH6iw-5rrHxniEC3_VJIBjBap9wZpfIMe_mW0zk1OGVZA6oGoULbB4oYwMX_v7qHQHCEhDpOhqIgHmUy9iBj4ySwmQCzgYEsrLWEfgIsvX_Bxlw1W00?></g></svg>