<svg xmlns="http://www.w3.org/2000/svg" xmlns:xlink="http://www.w3.org/1999/xlink" contentStyleType="text/css" data-diagram-type="CLASS" height="275px" preserveAspectRatio="none" style="width:544px;height:275px;background:#FFFFFF;" version="1.1" viewBox="0 0 544 275" width="544px" zoomAndPan="magnify"><?plantuml 1.2026.3beta6?><defs/><g><!--class Users--><g class="entity" data-qualified-name="Users" data-source-line="1" id="ent0002"><rect fill="#F1F1F1" height="113.1875" rx="2.5" ry="2.5" style="stroke:#181818;stroke-width:0.5;" width="149.9287" x="7" y="7"/><ellipse cx="58.1123" cy="23" fill="#ADD1B2" rx="11" ry="11" style="stroke:#181818;stroke-width:1;"/><path d="M62.2217,29 L54.5029,29 L54.5029,16.6094 L62.2217,16.6094 L62.2217,18.7656 L56.9561,18.7656 L56.9561,21.4375 L61.7217,21.4375 L61.7217,23.5938 L56.9561,23.5938 L56.9561,26.8438 L62.2217,26.8438 L62.2217,29 Z " fill="#000000"/><text fill="#000000" font-family="sans-serif" font-size="14" lengthAdjust="spacing" textLength="39.2041" x="78.6123" y="27.8467">Users</text><line style="stroke:#181818;stroke-width:0.5;" x1="8" x2="155.9287" y1="39" y2="39"/><g data-visibility-modifier="PUBLIC_FIELD"><ellipse cx="18" cy="52.6484" fill="none" rx="3" ry="3" style="stroke:#038048;stroke-width:1;"/></g><text fill="#000000" font-family="sans-serif" font-size="14" lengthAdjust="spacing" textLength="44.6455" x="27" y="55.9951">id : int</text><text fill="#000000" font-family="sans-serif" font-size="14" lengthAdjust="spacing" textLength="93.5088" x="27" y="72.292">name : string</text><text fill="#000000" font-family="sans-serif" font-size="14" lengthAdjust="spacing" textLength="92.415" x="27" y="88.5889">email : string</text><text fill="#000000" font-family="sans-serif" font-size="14" lengthAdjust="spacing" textLength="123.9287" x="27" y="104.8857">balance : decimal</text><line style="stroke:#181818;stroke-width:0.5;" x1="8" x2="155.9287" y1="112.1875" y2="112.1875"/></g><!--class Roles--><g class="entity" data-qualified-name="Roles" data-source-line="8" id="ent0003"><rect fill="#F1F1F1" height="80.5938" rx="2.5" ry="2.5" style="stroke:#181818;stroke-width:0.5;" width="119.5088" x="22.21" y="180.19"/><ellipse cx="59.4485" cy="196.19" fill="#ADD1B2" rx="11" ry="11" style="stroke:#181818;stroke-width:1;"/><path d="M63.5579,202.19 L55.8392,202.19 L55.8392,189.7994 L63.5579,189.7994 L63.5579,191.9556 L58.2923,191.9556 L58.2923,194.6275 L63.0579,194.6275 L63.0579,196.7838 L58.2923,196.7838 L58.2923,200.0338 L63.5579,200.0338 L63.5579,202.19 Z " fill="#000000"/><text fill="#000000" font-family="sans-serif" font-size="14" lengthAdjust="spacing" textLength="38.0898" x="78.3904" y="201.0367">Roles</text><line style="stroke:#181818;stroke-width:0.5;" x1="23.21" x2="140.7188" y1="212.19" y2="212.19"/><g data-visibility-modifier="PUBLIC_FIELD"><ellipse cx="33.21" cy="225.8384" fill="none" rx="3" ry="3" style="stroke:#038048;stroke-width:1;"/></g><text fill="#000000" font-family="sans-serif" font-size="14" lengthAdjust="spacing" textLength="44.6455" x="42.21" y="229.1851">id : int</text><text fill="#000000" font-family="sans-serif" font-size="14" lengthAdjust="spacing" textLength="93.5088" x="42.21" y="245.482">name : string</text><line style="stroke:#181818;stroke-width:0.5;" x1="23.21" x2="140.7188" y1="252.7838" y2="252.7838"/></g><!--class Services--><g class="entity" data-qualified-name="Services" data-source-line="13" id="ent0004"><rect fill="#F1F1F1" height="113.1875" rx="2.5" ry="2.5" style="stroke:#181818;stroke-width:0.5;" width="182.0986" x="346.92" y="7"/><ellipse cx="404.2017" cy="23" fill="#ADD1B2" rx="11" ry="11" style="stroke:#181818;stroke-width:1;"/><path d="M408.3111,29 L400.5924,29 L400.5924,16.6094 L408.3111,16.6094 L408.3111,18.7656 L403.0455,18.7656 L403.0455,21.4375 L407.8111,21.4375 L407.8111,23.5938 L403.0455,23.5938 L403.0455,26.8438 L408.3111,26.8438 L408.3111,29 Z " fill="#000000"/><text fill="#000000" font-family="sans-serif" font-size="14" lengthAdjust="spacing" textLength="59.0352" x="424.7017" y="27.8467">Services</text><line style="stroke:#181818;stroke-width:0.5;" x1="347.92" x2="528.0186" y1="39" y2="39"/><g data-visibility-modifier="PUBLIC_FIELD"><ellipse cx="357.92" cy="52.6484" fill="none" rx="3" ry="3" style="stroke:#038048;stroke-width:1;"/></g><text fill="#000000" font-family="sans-serif" font-size="14" lengthAdjust="spacing" textLength="44.6455" x="366.92" y="55.9951">id : int</text><text fill="#000000" font-family="sans-serif" font-size="14" lengthAdjust="spacing" textLength="93.5088" x="366.92" y="72.292">name : string</text><text fill="#000000" font-family="sans-serif" font-size="14" lengthAdjust="spacing" textLength="103.6533" x="366.92" y="88.5889">price : decimal</text><text fill="#000000" font-family="sans-serif" font-size="14" lengthAdjust="spacing" textLength="156.0986" x="366.92" y="104.8857">updated_at : datetime</text><line style="stroke:#181818;stroke-width:0.5;" x1="347.92" x2="528.0186" y1="112.1875" y2="112.1875"/></g><!--class Categories--><g class="entity" data-qualified-name="Categories" data-source-line="20" id="ent0005"><rect fill="#F1F1F1" height="80.5938" rx="2.5" ry="2.5" style="stroke:#181818;stroke-width:0.5;" width="119.5088" x="378.21" y="180.19"/><ellipse cx="398.6311" cy="196.19" fill="#ADD1B2" rx="11" ry="11" style="stroke:#181818;stroke-width:1;"/><path d="M402.7405,202.19 L395.0217,202.19 L395.0217,189.7994 L402.7405,189.7994 L402.7405,191.9556 L397.4748,191.9556 L397.4748,194.6275 L402.2405,194.6275 L402.2405,196.7838 L397.4748,196.7838 L397.4748,200.0338 L402.7405,200.0338 L402.7405,202.19 Z " fill="#000000"/><text fill="#000000" font-family="sans-serif" font-size="14" lengthAdjust="spacing" textLength="75.4619" x="413.8358" y="201.0367">Categories</text><line style="stroke:#181818;stroke-width:0.5;" x1="379.21" x2="496.7188" y1="212.19" y2="212.19"/><g data-visibility-modifier="PUBLIC_FIELD"><ellipse cx="389.21" cy="225.8384" fill="none" rx="3" ry="3" style="stroke:#038048;stroke-width:1;"/></g><text fill="#000000" font-family="sans-serif" font-size="14" lengthAdjust="spacing" textLength="44.6455" x="398.21" y="229.1851">id : int</text><text fill="#000000" font-family="sans-serif" font-size="14" lengthAdjust="spacing" textLength="93.5088" x="398.21" y="245.482">name : string</text><line style="stroke:#181818;stroke-width:0.5;" x1="379.21" x2="496.7188" y1="252.7838" y2="252.7838"/></g><!--class Masters--><g class="entity" data-qualified-name="Masters" data-source-line="25" id="ent0006"><rect fill="#F1F1F1" height="80.5938" rx="2.5" ry="2.5" style="stroke:#181818;stroke-width:0.5;" width="119.5088" x="192.21" y="23.3"/><ellipse cx="221.7919" cy="39.3" fill="#ADD1B2" rx="11" ry="11" style="stroke:#181818;stroke-width:1;"/><path d="M225.9013,45.3 L218.1826,45.3 L218.1826,32.9094 L225.9013,32.9094 L225.9013,35.0656 L220.6357,35.0656 L220.6357,37.7375 L225.4013,37.7375 L225.4013,39.8938 L220.6357,39.8938 L220.6357,43.1438 L225.9013,43.1438 L225.9013,45.3 Z " fill="#000000"/><text fill="#000000" font-family="sans-serif" font-size="14" lengthAdjust="spacing" textLength="55.1045" x="239.0324" y="44.1467">Masters</text><line style="stroke:#181818;stroke-width:0.5;" x1="193.21" x2="310.7188" y1="55.3" y2="55.3"/><g data-visibility-modifier="PUBLIC_FIELD"><ellipse cx="203.21" cy="68.9484" fill="none" rx="3" ry="3" style="stroke:#038048;stroke-width:1;"/></g><text fill="#000000" font-family="sans-serif" font-size="14" lengthAdjust="spacing" textLength="44.6455" x="212.21" y="72.2951">id : int</text><text fill="#000000" font-family="sans-serif" font-size="14" lengthAdjust="spacing" textLength="93.5088" x="212.21" y="88.592">name : string</text><line style="stroke:#181818;stroke-width:0.5;" x1="193.21" x2="310.7188" y1="95.8938" y2="95.8938"/></g><!--class Appointments--><g class="entity" data-qualified-name="Appointments" data-source-line="30" id="ent0007"><rect fill="#F1F1F1" height="80.5938" rx="2.5" ry="2.5" style="stroke:#181818;stroke-width:0.5;" width="134.3838" x="184.77" y="180.19"/><ellipse cx="201.7089" cy="196.19" fill="#ADD1B2" rx="11" ry="11" style="stroke:#181818;stroke-width:1;"/><path d="M205.8182,202.19 L198.0995,202.19 L198.0995,189.7994 L205.8182,189.7994 L205.8182,191.9556 L200.5526,191.9556 L200.5526,194.6275 L205.3182,194.6275 L205.3182,196.7838 L200.5526,196.7838 L200.5526,200.0338 L205.8182,200.0338 L205.8182,202.19 Z " fill="#000000"/><text fill="#000000" font-family="sans-serif" font-size="14" lengthAdjust="spacing" textLength="98.0752" x="216.1397" y="201.0367">Appointments</text><line style="stroke:#181818;stroke-width:0.5;" x1="185.77" x2="318.1538" y1="212.19" y2="212.19"/><g data-visibility-modifier="PUBLIC_FIELD"><ellipse cx="195.77" cy="225.8384" fill="none" rx="3" ry="3" style="stroke:#038048;stroke-width:1;"/></g><text fill="#000000" font-family="sans-serif" font-size="14" lengthAdjust="spacing" textLength="44.6455" x="204.77" y="229.1851">id : int</text><text fill="#000000" font-family="sans-serif" font-size="14" lengthAdjust="spacing" textLength="108.3838" x="204.77" y="245.482">date : datetime</text><line style="stroke:#181818;stroke-width:0.5;" x1="185.77" x2="318.1538" y1="252.7838" y2="252.7838"/></g><!--link Users to Roles--><g class="link" data-entity-1="ent0002" data-entity-2="ent0003" data-link-type="crowfoot" data-source-line="35" id="lnk8"><path codeLine="35" d="M81.96,138.51 C81.96,158.27 81.96,154.06 81.96,172.15" fill="none" id="Users-Roles" style="stroke:#181818;stroke-width:1;"/><line style="stroke:#181818;stroke-width:1;" x1="81.96" x2="75.96" y1="128.51" y2="120.51"/><line style="stroke:#181818;stroke-width:1;" x1="81.96" x2="87.96" y1="128.51" y2="120.51"/><line style="stroke:#181818;stroke-width:1;" x1="81.96" x2="81.96" y1="128.51" y2="120.51"/><ellipse cx="81.96" cy="134.51" fill="none" rx="4" ry="4" style="stroke:#181818;stroke-width:1;"/><line style="stroke:#181818;stroke-width:1;" x1="85.96" x2="77.96" y1="176.15" y2="176.15"/><line style="stroke:#181818;stroke-width:1;" x1="85.96" x2="77.96" y1="173.15" y2="173.15"/><line style="stroke:#181818;stroke-width:1;" x1="81.96" x2="81.96" y1="172.15" y2="180.15"/></g><!--link Users to Appointments--><g class="link" data-entity-1="ent0002" data-entity-2="ent0007" data-link-type="crowfoot" data-source-line="36" id="lnk9"><path codeLine="36" d="M149.2537,125.8978 C170.8437,145.5678 175.4278,149.7335 195.2278,167.7835" fill="none" id="Users-Appointments" style="stroke:#181818;stroke-width:1;"/><line style="stroke:#181818;stroke-width:1;" x1="143.603" x2="148.9907" y1="126.1607" y2="120.247"/><line style="stroke:#181818;stroke-width:1;" x1="145.8206" x2="151.2084" y1="128.1812" y2="122.2675"/><line style="stroke:#181818;stroke-width:1;" x1="149.2537" x2="143.34" y1="125.8978" y2="120.51"/><line style="stroke:#181818;stroke-width:1;" x1="202.6179" x2="212.5722" y1="174.5204" y2="175.4759"/><line style="stroke:#181818;stroke-width:1;" x1="202.6179" x2="204.4878" y1="174.5204" y2="184.3441"/><line style="stroke:#181818;stroke-width:1;" x1="202.6179" x2="208.53" y1="174.5204" y2="179.91"/><ellipse cx="198.1839" cy="170.4783" fill="none" rx="4" ry="4" style="stroke:#181818;stroke-width:1;"/></g><!--link Services to Appointments--><g class="link" data-entity-1="ent0004" data-entity-2="ent0007" data-link-type="crowfoot" data-source-line="37" id="lnk10"><path codeLine="37" d="M364.6625,125.6294 C341.0425,145.2994 334.9906,150.3398 313.3206,168.3898" fill="none" id="Services-Appointments" style="stroke:#181818;stroke-width:1;"/><line style="stroke:#181818;stroke-width:1;" x1="365.1765" x2="370.296" y1="119.996" y2="126.1435"/><line style="stroke:#181818;stroke-width:1;" x1="362.8712" x2="367.9907" y1="121.9158" y2="128.0632"/><line style="stroke:#181818;stroke-width:1;" x1="364.6625" x2="370.81" y1="125.6294" y2="120.51"/><line style="stroke:#181818;stroke-width:1;" x1="305.6369" x2="303.3301" y1="174.7899" y2="184.5202"/><line style="stroke:#181818;stroke-width:1;" x1="305.6369" x2="295.6499" y1="174.7899" y2="175.2998"/><line style="stroke:#181818;stroke-width:1;" x1="305.6369" x2="299.49" y1="174.7899" y2="179.91"/><ellipse cx="310.2471" cy="170.9499" fill="none" rx="4" ry="4" style="stroke:#181818;stroke-width:1;"/></g><!--link Services to Categories--><g class="link" data-entity-1="ent0004" data-entity-2="ent0005" data-link-type="crowfoot" data-source-line="38" id="lnk11"><path codeLine="38" d="M437.96,138.51 C437.96,158.27 437.96,154.06 437.96,172.15" fill="none" id="Services-Categories" style="stroke:#181818;stroke-width:1;"/><line style="stroke:#181818;stroke-width:1;" x1="437.96" x2="431.96" y1="128.51" y2="120.51"/><line style="stroke:#181818;stroke-width:1;" x1="437.96" x2="443.96" y1="128.51" y2="120.51"/><line style="stroke:#181818;stroke-width:1;" x1="437.96" x2="437.96" y1="128.51" y2="120.51"/><ellipse cx="437.96" cy="134.51" fill="none" rx="4" ry="4" style="stroke:#181818;stroke-width:1;"/><line style="stroke:#181818;stroke-width:1;" x1="441.96" x2="433.96" y1="176.15" y2="176.15"/><line style="stroke:#181818;stroke-width:1;" x1="441.96" x2="433.96" y1="173.15" y2="173.15"/><line style="stroke:#181818;stroke-width:1;" x1="437.96" x2="437.96" y1="172.15" y2="180.15"/></g><!--link Masters to Appointments--><g class="link" data-entity-1="ent0006" data-entity-2="ent0007" data-link-type="crowfoot" data-source-line="39" id="lnk12"><path codeLine="39" d="M251.96,112.08 C251.96,135.29 251.96,138.55 251.96,161.8" fill="none" id="Masters-Appointments" style="stroke:#181818;stroke-width:1;"/><line style="stroke:#181818;stroke-width:1;" x1="247.96" x2="255.96" y1="108.08" y2="108.08"/><line style="stroke:#181818;stroke-width:1;" x1="247.96" x2="255.96" y1="111.08" y2="111.08"/><line style="stroke:#181818;stroke-width:1;" x1="251.96" x2="251.96" y1="112.08" y2="104.08"/><line style="stroke:#181818;stroke-width:1;" x1="251.96" x2="257.96" y1="171.8" y2="179.8"/><line style="stroke:#181818;stroke-width:1;" x1="251.96" x2="245.96" y1="171.8" y2="179.8"/><line style="stroke:#181818;stroke-width:1;" x1="251.96" x2="251.96" y1="171.8" y2="179.8"/><ellipse cx="251.96" cy="165.8" fill="none" rx="4" ry="4" style="stroke:#181818;stroke-width:1;"/></g><?plantuml-src bL2x3i8m3Dpp5TvHVe0DCRE0c95fhCfI7bLYa13flvEgXRQ0gDXyb_FbVEI5vGR7H371NG6isC0Qs4kPFJeg84baNnTC3jbEYJDQz5MdCLInGwjQfQYtt0TBIvQZ-a3noXKjPsWYppu4k3G6XSm9fQFBAEneOhqjL1qY_v5cXqcM2ndrcwO9HU4A_5pg8hqbw-jkWzOvzqKDLCvQX_lCJxsg-Vauc8t7gkSHNzOU?></g></svg>