<svg xmlns="http://www.w3.org/2000/svg" xmlns:xlink="http://www.w3.org/1999/xlink" contentStyleType="text/css" data-diagram-type="DESCRIPTION" height="166px" preserveAspectRatio="none" style="width:1061px;height:166px;background:#FFFFFF;" version="1.1" viewBox="0 0 1061 166" width="1061px" zoomAndPan="magnify"><?plantuml 1.2026.3beta6?><defs/><g><!--entity User--><g class="entity" data-qualified-name="User" data-source-line="1" id="ent0002"><ellipse cx="21.9551" cy="85.59" fill="#F1F1F1" rx="8" ry="8" style="stroke:#181818;stroke-width:0.5;"/><path d="M21.9551,93.59 L21.9551,120.59 M8.9551,101.59 L34.9551,101.59 M21.9551,120.59 L8.9551,135.59 M21.9551,120.59 L34.9551,135.59" fill="none" style="stroke:#181818;stroke-width:0.5;"/><text fill="#000000" font-family="sans-serif" font-size="14" lengthAdjust="spacing" textLength="31.9102" x="6" y="150.0851">User</text></g><!--entity Moderator--><g class="entity" data-qualified-name="Moderator" data-source-line="2" id="ent0003"><ellipse cx="273.955" cy="85.59" fill="#F1F1F1" rx="8" ry="8" style="stroke:#181818;stroke-width:0.5;"/><path d="M273.955,93.59 L273.955,120.59 M260.955,101.59 L286.955,101.59 M273.955,120.59 L260.955,135.59 M273.955,120.59 L286.955,135.59" fill="none" style="stroke:#181818;stroke-width:0.5;"/><text fill="#000000" font-family="sans-serif" font-size="14" lengthAdjust="spacing" textLength="72.29" x="237.81" y="150.0851">Moderator</text></g><!--entity Admin--><g class="entity" data-qualified-name="Admin" data-source-line="3" id="ent0004"><ellipse cx="588.9521" cy="85.59" fill="#F1F1F1" rx="8" ry="8" style="stroke:#181818;stroke-width:0.5;"/><path d="M588.9521,93.59 L588.9521,120.59 M575.9521,101.59 L601.9521,101.59 M588.9521,120.59 L575.9521,135.59 M588.9521,120.59 L601.9521,135.59" fill="none" style="stroke:#181818;stroke-width:0.5;"/><text fill="#000000" font-family="sans-serif" font-size="14" lengthAdjust="spacing" textLength="44.8643" x="566.52" y="150.0851">Admin</text></g><!--entity ??????????--><g class="entity" data-qualified-name=".........." data-source-line="5" id="ent0005"><ellipse cx="137.965" cy="115.239" fill="#F1F1F1" rx="65.245" ry="15.449" style="stroke:#181818;stroke-width:0.5;"/><text fill="#000000" font-family="sans-serif" font-size="14" lengthAdjust="spacing" textLength="94.1172" x="90.9064" y="119.8874">&#1055;&#1088;&#1080;&#1083;&#1086;&#1078;&#1077;&#1085;&#1080;&#1077;</text></g><!--entity ???? ??????--><g class="entity" data-qualified-name=".... ......" data-source-line="6" id="ent0007"><ellipse cx="981.9631" cy="115.2426" fill="#F1F1F1" rx="65.4131" ry="15.4826" style="stroke:#181818;stroke-width:0.5;"/><text fill="#000000" font-family="sans-serif" font-size="14" lengthAdjust="spacing" textLength="94.5615" x="934.6823" y="119.8911">&#1041;&#1072;&#1079;&#1072; &#1076;&#1072;&#1085;&#1085;&#1099;&#1093;</text></g><!--entity ?????????? ????????--><g class="entity" data-qualified-name=".......... ........" data-source-line="8" id="ent0009"><ellipse cx="437.9626" cy="115.2425" fill="#F1F1F1" rx="93.2626" ry="21.0525" style="stroke:#181818;stroke-width:0.5;"/><text fill="#000000" font-family="sans-serif" font-size="14" lengthAdjust="spacing" textLength="161.0889" x="357.4181" y="119.891">&#1059;&#1087;&#1088;&#1072;&#1074;&#1083;&#1077;&#1085;&#1080;&#1077; &#1091;&#1089;&#1083;&#1091;&#1075;&#1072;&#1084;&#1080;</text></g><!--entity ?????????? ??????????????--><g class="entity" data-qualified-name=".......... .............." data-source-line="11" id="ent0012"><ellipse cx="763.9571" cy="115.2434" fill="#F1F1F1" rx="117.4171" ry="25.8834" style="stroke:#181818;stroke-width:0.5;"/><text fill="#000000" font-family="sans-serif" font-size="14" lengthAdjust="spacing" textLength="213.835" x="657.0396" y="119.8919">&#1059;&#1087;&#1088;&#1072;&#1074;&#1083;&#1077;&#1085;&#1080;&#1077; &#1087;&#1086;&#1083;&#1100;&#1079;&#1086;&#1074;&#1072;&#1090;&#1077;&#1083;&#1103;&#1084;&#1080;</text></g><!--link User to ??????????--><g class="link" data-entity-1="ent0002" data-entity-2="ent0005" data-link-type="dependency" data-source-line="5" id="lnk6"><path d="M38.27,115.24 C49.69,115.24 55.11,115.24 66.54,115.24" fill="none" id="User-to-&#1055;&#1088;&#1080;&#1083;&#1086;&#1078;&#1077;&#1085;&#1080;&#1077;" style="stroke:#181818;stroke-width:1;"/><polygon fill="#181818" points="72.54,115.24,63.54,111.24,67.54,115.24,63.54,119.24,72.54,115.24" style="stroke:#181818;stroke-width:1;"/></g><!--link ?????????? to ???? ??????--><g class="link" data-entity-1="ent0005" data-entity-2="ent0007" data-link-type="dependency" data-source-line="6" id="lnk8"><path d="M153.56,100.01 C171.89,83.28 204.05,57.43 237.46,47.09 C305.81,25.93 813.05,26.09 881.46,47.09 C915.11,57.43 943.1655,79.2604 961.7055,95.9904" fill="none" id="&#1055;&#1088;&#1080;&#1083;&#1086;&#1078;&#1077;&#1085;&#1080;&#1077;-to-&#1041;&#1072;&#1079;&#1072; &#1076;&#1072;&#1085;&#1085;&#1099;&#1093;" style="stroke:#181818;stroke-width:1;"/><polygon fill="#181818" points="966.16,100.01,962.158,91.0109,962.4479,96.6603,956.7985,96.9502,966.16,100.01" style="stroke:#181818;stroke-width:1;"/></g><!--link Moderator to ?????????? ????????--><g class="link" data-entity-1="ent0003" data-entity-2="ent0009" data-link-type="dependency" data-source-line="8" id="lnk10"><path d="M310.47,115.24 C321.76,115.24 327.05,115.24 338.33,115.24" fill="none" id="Moderator-to-&#1059;&#1087;&#1088;&#1072;&#1074;&#1083;&#1077;&#1085;&#1080;&#1077; &#1091;&#1089;&#1083;&#1091;&#1075;&#1072;&#1084;&#1080;" style="stroke:#181818;stroke-width:1;"/><polygon fill="#181818" points="344.33,115.24,335.33,111.24,339.33,115.24,335.33,119.24,344.33,115.24" style="stroke:#181818;stroke-width:1;"/></g><!--link ?????????? ???????? to ???? ??????--><g class="link" data-entity-1="ent0009" data-entity-2="ent0007" data-link-type="dependency" data-source-line="9" id="lnk11"><path d="M466.4,94.9 C491.39,78.35 529.45,56.3 566.46,47.09 C702.31,13.3 747.62,6 881.46,47.09 C915.11,57.43 943.1655,79.2604 961.7055,95.9904" fill="none" id="&#1059;&#1087;&#1088;&#1072;&#1074;&#1083;&#1077;&#1085;&#1080;&#1077; &#1091;&#1089;&#1083;&#1091;&#1075;&#1072;&#1084;&#1080;-to-&#1041;&#1072;&#1079;&#1072; &#1076;&#1072;&#1085;&#1085;&#1099;&#1093;" style="stroke:#181818;stroke-width:1;"/><polygon fill="#181818" points="966.16,100.01,962.158,91.0109,962.4479,96.6603,956.7985,96.9502,966.16,100.01" style="stroke:#181818;stroke-width:1;"/></g><!--link Admin to ?????????? ??????????????--><g class="link" data-entity-1="ent0004" data-entity-2="ent0012" data-link-type="dependency" data-source-line="11" id="lnk13"><path d="M611.86,115.24 C623.34,115.24 628.83,115.24 640.32,115.24" fill="none" id="Admin-to-&#1059;&#1087;&#1088;&#1072;&#1074;&#1083;&#1077;&#1085;&#1080;&#1077; &#1087;&#1086;&#1083;&#1100;&#1079;&#1086;&#1074;&#1072;&#1090;&#1077;&#1083;&#1103;&#1084;&#1080;" style="stroke:#181818;stroke-width:1;"/><polygon fill="#181818" points="646.32,115.24,637.32,111.24,641.32,115.24,637.32,119.24,646.32,115.24" style="stroke:#181818;stroke-width:1;"/></g><!--link ?????????? ?????????????? to ???? ??????--><g class="link" data-entity-1="ent0012" data-entity-2="ent0007" data-link-type="dependency" data-source-line="12" id="lnk14"><path d="M881.47,115.24 C893.12,115.24 898.76,115.24 910.4,115.24" fill="none" id="&#1059;&#1087;&#1088;&#1072;&#1074;&#1083;&#1077;&#1085;&#1080;&#1077; &#1087;&#1086;&#1083;&#1100;&#1079;&#1086;&#1074;&#1072;&#1090;&#1077;&#1083;&#1103;&#1084;&#1080;-to-&#1041;&#1072;&#1079;&#1072; &#1076;&#1072;&#1085;&#1085;&#1099;&#1093;" style="stroke:#181818;stroke-width:1;"/><polygon fill="#181818" points="916.4,115.24,907.4,111.24,911.4,115.24,907.4,119.24,916.4,115.24" style="stroke:#181818;stroke-width:1;"/></g><?plantuml-src IqmkoIzI22rEBU9A13DzyrDIYnA1B2ZVCIKtCu-B2wH2GTTEGUF2_8iD5tPSs7rXtuLj5xPUs0jaRzNamYuCqJ3nmeOBsoziKBYm1SZOUs7lnUwBhPfSN72B8AeMNzWFD673XKr0Cw3w5IusNsoyiFjYyuNDG8az5tQ0x25A7LwBmJx2RUc5_K0_xBxO0zIw3oYnuM8JK6htnNvy3i2h1uzZ0000?></g></svg>